<?xml version="1.0" encoding="UTF-8"?>
<svg xmlns="http://www.w3.org/2000/svg" xmlns:xlink="http://www.w3.org/1999/xlink" width="20px" height="20px" viewBox="0 0 20 20" version="1.1">
<g id="surface1">
<path style=" stroke:none;fill-rule:nonzero;fill:rgb(91.37255%,91.37255%,87.843138%);fill-opacity:1;" d="M 13.207031 0 L 2.84375 0 C 2.554688 0 2.320312 0.234375 2.320312 0.6875 L 2.320312 19.644531 C 2.320312 19.765625 2.554688 20 2.84375 20 L 17.15625 20 C 17.445312 20 17.679688 19.765625 17.679688 19.644531 L 17.679688 4.636719 C 17.679688 4.386719 17.644531 4.304688 17.585938 4.246094 L 13.429688 0.0898438 C 13.371094 0.0351562 13.292969 0 13.207031 0 Z M 13.207031 0 "/>
<path style=" stroke:none;fill-rule:nonzero;fill:rgb(85.09804%,84.313726%,79.215688%);fill-opacity:1;" d="M 13.394531 0.0546875 L 13.394531 4.285156 L 17.625 4.285156 Z M 13.394531 0.0546875 "/>
<path style=" stroke:none;fill-rule:nonzero;fill:rgb(100%,0%,0%);fill-opacity:1;" d="M 17.15625 20 L 2.84375 20 C 2.554688 20 2.320312 19.765625 2.320312 19.476562 L 2.320312 13.929688 L 17.679688 13.929688 L 17.679688 19.476562 C 17.679688 19.765625 17.445312 20 17.15625 20 Z M 17.15625 20 "/>
<path style=" stroke:none;fill-rule:nonzero;fill:rgb(100%,100%,100%);fill-opacity:1;" d="M 8.421875 18.5625 C 8.289062 18.691406 8.136719 18.789062 7.96875 18.855469 C 7.796875 18.921875 7.617188 18.953125 7.421875 18.953125 C 7.207031 18.953125 7.007812 18.914062 6.828125 18.835938 C 6.648438 18.757812 6.488281 18.640625 6.355469 18.488281 C 6.21875 18.335938 6.113281 18.144531 6.035156 17.914062 C 5.960938 17.683594 5.921875 17.414062 5.921875 17.113281 C 5.921875 16.808594 5.960938 16.542969 6.035156 16.3125 C 6.113281 16.085938 6.21875 15.894531 6.355469 15.742188 C 6.488281 15.585938 6.648438 15.472656 6.828125 15.390625 C 7.011719 15.3125 7.210938 15.269531 7.421875 15.269531 C 7.617188 15.269531 7.796875 15.304688 7.96875 15.367188 C 8.136719 15.433594 8.289062 15.53125 8.421875 15.660156 L 8.015625 16.023438 C 7.933594 15.929688 7.84375 15.859375 7.746094 15.816406 C 7.644531 15.777344 7.542969 15.753906 7.433594 15.753906 C 7.316406 15.753906 7.199219 15.777344 7.089844 15.824219 C 6.980469 15.867188 6.882812 15.945312 6.796875 16.054688 C 6.710938 16.164062 6.644531 16.304688 6.59375 16.476562 C 6.546875 16.648438 6.519531 16.859375 6.515625 17.113281 C 6.519531 17.355469 6.546875 17.5625 6.59375 17.738281 C 6.640625 17.910156 6.703125 18.050781 6.789062 18.160156 C 6.871094 18.269531 6.964844 18.347656 7.070312 18.398438 C 7.175781 18.449219 7.289062 18.472656 7.40625 18.472656 C 7.523438 18.472656 7.632812 18.453125 7.734375 18.410156 C 7.839844 18.367188 7.933594 18.300781 8.015625 18.207031 Z M 8.421875 18.5625 "/>
<path style=" stroke:none;fill-rule:nonzero;fill:rgb(100%,100%,100%);fill-opacity:1;" d="M 11.296875 17.941406 C 11.296875 18.070312 11.269531 18.199219 11.214844 18.320312 C 11.164062 18.441406 11.085938 18.550781 10.988281 18.644531 C 10.890625 18.734375 10.773438 18.808594 10.628906 18.863281 C 10.484375 18.921875 10.324219 18.949219 10.140625 18.949219 C 10.0625 18.949219 9.980469 18.945312 9.898438 18.9375 C 9.816406 18.929688 9.730469 18.914062 9.648438 18.894531 C 9.5625 18.875 9.480469 18.847656 9.40625 18.8125 C 9.328125 18.777344 9.261719 18.738281 9.207031 18.6875 L 9.308594 18.269531 C 9.355469 18.296875 9.414062 18.320312 9.484375 18.34375 C 9.554688 18.367188 9.625 18.390625 9.699219 18.414062 C 9.773438 18.433594 9.851562 18.449219 9.925781 18.464844 C 10 18.476562 10.070312 18.484375 10.132812 18.484375 C 10.332031 18.484375 10.484375 18.4375 10.589844 18.34375 C 10.695312 18.25 10.75 18.113281 10.75 17.933594 C 10.75 17.820312 10.710938 17.726562 10.636719 17.648438 C 10.5625 17.570312 10.46875 17.5 10.355469 17.4375 C 10.246094 17.371094 10.125 17.308594 9.992188 17.246094 C 9.863281 17.183594 9.742188 17.109375 9.625 17.019531 C 9.511719 16.933594 9.417969 16.832031 9.34375 16.714844 C 9.269531 16.597656 9.230469 16.453125 9.230469 16.277344 C 9.230469 16.117188 9.261719 15.976562 9.320312 15.851562 C 9.378906 15.730469 9.457031 15.625 9.554688 15.539062 C 9.65625 15.453125 9.769531 15.386719 9.902344 15.339844 C 10.035156 15.292969 10.175781 15.269531 10.320312 15.269531 C 10.46875 15.269531 10.621094 15.285156 10.773438 15.3125 C 10.925781 15.339844 11.050781 15.386719 11.144531 15.445312 C 11.125 15.488281 11.101562 15.535156 11.078125 15.585938 C 11.050781 15.636719 11.027344 15.683594 11.003906 15.726562 C 10.980469 15.773438 10.960938 15.808594 10.945312 15.835938 C 10.929688 15.867188 10.917969 15.882812 10.917969 15.886719 C 10.894531 15.878906 10.875 15.863281 10.851562 15.847656 C 10.824219 15.832031 10.789062 15.816406 10.746094 15.800781 C 10.699219 15.78125 10.640625 15.769531 10.5625 15.765625 C 10.488281 15.757812 10.394531 15.757812 10.277344 15.769531 C 10.210938 15.777344 10.148438 15.792969 10.089844 15.824219 C 10.03125 15.855469 9.980469 15.894531 9.933594 15.941406 C 9.886719 15.984375 9.851562 16.039062 9.828125 16.09375 C 9.800781 16.152344 9.789062 16.207031 9.789062 16.257812 C 9.789062 16.386719 9.824219 16.492188 9.898438 16.574219 C 9.976562 16.652344 10.066406 16.722656 10.179688 16.78125 C 10.289062 16.84375 10.410156 16.902344 10.539062 16.957031 C 10.667969 17.015625 10.789062 17.085938 10.902344 17.167969 C 11.015625 17.246094 11.109375 17.347656 11.183594 17.472656 C 11.257812 17.59375 11.296875 17.75 11.296875 17.941406 Z M 11.296875 17.941406 "/>
<path style=" stroke:none;fill-rule:nonzero;fill:rgb(100%,100%,100%);fill-opacity:1;" d="M 13.945312 17.941406 C 13.945312 18.070312 13.917969 18.199219 13.863281 18.320312 C 13.808594 18.441406 13.734375 18.550781 13.636719 18.644531 C 13.539062 18.734375 13.417969 18.808594 13.273438 18.863281 C 13.132812 18.921875 12.96875 18.949219 12.785156 18.949219 C 12.707031 18.949219 12.628906 18.945312 12.542969 18.9375 C 12.460938 18.929688 12.378906 18.914062 12.292969 18.894531 C 12.207031 18.875 12.128906 18.847656 12.050781 18.8125 C 11.976562 18.777344 11.910156 18.738281 11.855469 18.6875 L 11.957031 18.269531 C 12 18.296875 12.058594 18.320312 12.128906 18.34375 C 12.199219 18.367188 12.269531 18.390625 12.347656 18.414062 C 12.421875 18.433594 12.496094 18.449219 12.570312 18.464844 C 12.644531 18.476562 12.714844 18.484375 12.78125 18.484375 C 12.980469 18.484375 13.132812 18.4375 13.238281 18.34375 C 13.34375 18.25 13.394531 18.113281 13.394531 17.933594 C 13.394531 17.820312 13.359375 17.726562 13.285156 17.648438 C 13.207031 17.570312 13.117188 17.5 13.003906 17.4375 C 12.890625 17.371094 12.769531 17.308594 12.640625 17.246094 C 12.507812 17.183594 12.386719 17.109375 12.273438 17.019531 C 12.160156 16.933594 12.066406 16.832031 11.988281 16.714844 C 11.914062 16.597656 11.878906 16.453125 11.878906 16.277344 C 11.878906 16.117188 11.90625 15.976562 11.964844 15.851562 C 12.023438 15.730469 12.101562 15.625 12.203125 15.539062 C 12.300781 15.453125 12.417969 15.386719 12.550781 15.339844 C 12.679688 15.292969 12.820312 15.269531 12.964844 15.269531 C 13.117188 15.269531 13.269531 15.285156 13.421875 15.3125 C 13.574219 15.339844 13.695312 15.386719 13.792969 15.445312 C 13.773438 15.488281 13.75 15.535156 13.722656 15.585938 C 13.699219 15.636719 13.671875 15.683594 13.648438 15.726562 C 13.628906 15.773438 13.609375 15.808594 13.589844 15.835938 C 13.574219 15.867188 13.566406 15.882812 13.5625 15.886719 C 13.542969 15.878906 13.519531 15.863281 13.496094 15.847656 C 13.472656 15.832031 13.4375 15.816406 13.390625 15.800781 C 13.347656 15.78125 13.285156 15.769531 13.210938 15.765625 C 13.136719 15.757812 13.039062 15.757812 12.921875 15.769531 C 12.855469 15.777344 12.796875 15.792969 12.738281 15.824219 C 12.679688 15.855469 12.625 15.894531 12.582031 15.941406 C 12.535156 15.984375 12.5 16.039062 12.472656 16.09375 C 12.445312 16.152344 12.433594 16.207031 12.433594 16.257812 C 12.433594 16.386719 12.472656 16.492188 12.546875 16.574219 C 12.621094 16.652344 12.714844 16.722656 12.824219 16.78125 C 12.933594 16.84375 13.054688 16.902344 13.1875 16.957031 C 13.316406 17.015625 13.4375 17.085938 13.550781 17.167969 C 13.664062 17.246094 13.753906 17.347656 13.832031 17.472656 C 13.90625 17.59375 13.945312 17.75 13.945312 17.941406 Z M 13.945312 17.941406 "/>
<path style=" stroke:none;fill-rule:nonzero;fill:rgb(100%,0%,0%);fill-opacity:1;" d="M 6.964844 6.785156 L 6.964844 5.355469 C 6.964844 5.160156 7.125 5 7.320312 5 C 7.519531 5 7.679688 4.839844 7.679688 4.644531 C 7.679688 4.445312 7.519531 4.285156 7.320312 4.285156 C 6.730469 4.285156 6.25 4.765625 6.25 5.355469 L 6.25 6.785156 C 6.25 7.179688 5.929688 7.5 5.535156 7.5 C 5.339844 7.5 5.179688 7.660156 5.179688 7.855469 C 5.179688 8.054688 5.339844 8.214844 5.535156 8.214844 C 5.929688 8.214844 6.25 8.535156 6.25 8.929688 L 6.25 10.355469 C 6.25 10.949219 6.730469 11.429688 7.320312 11.429688 C 7.519531 11.429688 7.679688 11.269531 7.679688 11.070312 C 7.679688 10.875 7.519531 10.714844 7.320312 10.714844 C 7.125 10.714844 6.964844 10.554688 6.964844 10.355469 L 6.964844 8.929688 C 6.964844 8.5 6.769531 8.121094 6.472656 7.855469 C 6.769531 7.59375 6.964844 7.214844 6.964844 6.785156 Z M 6.964844 6.785156 "/>
<path style=" stroke:none;fill-rule:nonzero;fill:rgb(100%,0%,0%);fill-opacity:1;" d="M 14.105469 7.5 C 13.714844 7.5 13.394531 7.179688 13.394531 6.785156 L 13.394531 5.355469 C 13.394531 4.765625 12.914062 4.285156 12.320312 4.285156 C 12.125 4.285156 11.964844 4.445312 11.964844 4.644531 C 11.964844 4.839844 12.125 5 12.320312 5 C 12.519531 5 12.679688 5.160156 12.679688 5.355469 L 12.679688 6.785156 C 12.679688 7.214844 12.871094 7.59375 13.171875 7.855469 C 12.871094 8.121094 12.679688 8.5 12.679688 8.929688 L 12.679688 10.355469 C 12.679688 10.554688 12.519531 10.714844 12.320312 10.714844 C 12.125 10.714844 11.964844 10.875 11.964844 11.070312 C 11.964844 11.269531 12.125 11.429688 12.320312 11.429688 C 12.914062 11.429688 13.394531 10.949219 13.394531 10.355469 L 13.394531 8.929688 C 13.394531 8.535156 13.714844 8.214844 14.105469 8.214844 C 14.304688 8.214844 14.464844 8.054688 14.464844 7.855469 C 14.464844 7.660156 14.304688 7.5 14.105469 7.5 Z M 14.105469 7.5 "/>
</g>
</svg>
